<?xml version="1.0" encoding="utf-8"?>
<!-- Generator: Adobe Illustrator 19.1.0, SVG Export Plug-In . SVG Version: 6.00 Build 0)  -->
<svg version="1.1" id="Layer_1" xmlns="http://www.w3.org/2000/svg" xmlns:xlink="http://www.w3.org/1999/xlink" x="0px" y="0px"
	 viewBox="0 0 528 452" style="enable-background:new 0 0 528 452;" xml:space="preserve">
<style type="text/css">
	.st0{fill:#601541;}
	.st1{fill:#EDEDEE;}
	.st2{fill:#707072;}
	.st3{fill:none;}
	.st4{font-family:'BebasNeueRegular';}
	.st5{font-size:33.5975px;}
	.st6{clip-path:url(#SVGID_2_);}
	.st7{clip-path:url(#SVGID_6_);}
	.st8{clip-path:url(#SVGID_8_);fill:#FFFFFF;}
	.st9{clip-path:url(#SVGID_8_);fill:#F3CBE0;}
	.st10{clip-path:url(#SVGID_8_);}
	.st11{clip-path:url(#SVGID_10_);}
	.st12{clip-path:url(#SVGID_12_);fill:#FFFFFF;}
	.st13{clip-path:url(#SVGID_12_);}
	.st14{clip-path:url(#SVGID_12_);fill:#E91D28;}
	.st15{clip-path:url(#SVGID_12_);fill:#A81F23;}
	.st16{clip-path:url(#SVGID_12_);fill:#D9A4AE;}
	.st17{clip-path:url(#SVGID_14_);fill:#FFFFFF;}
	.st18{clip-path:url(#SVGID_14_);}
	.st19{clip-path:url(#SVGID_14_);fill:#DCDDDE;}
	.st20{clip-path:url(#SVGID_14_);fill:#DF1C4A;}
	.st21{clip-path:url(#SVGID_14_);fill:#C41F43;}
	.st22{clip-path:url(#SVGID_14_);fill:#9F1C37;}
	.st23{clip-path:url(#SVGID_14_);fill:#D67B96;}
	.st24{clip-path:url(#SVGID_16_);fill:#53A064;}
	.st25{clip-path:url(#SVGID_16_);fill:#163A35;}
	.st26{clip-path:url(#SVGID_16_);fill:#166935;}
	.st27{clip-path:url(#SVGID_16_);fill:#C1E2C3;}
	.st28{clip-path:url(#SVGID_18_);fill:#FFFFFF;}
	.st29{clip-path:url(#SVGID_18_);}
	.st30{clip-path:url(#SVGID_20_);fill:#B21F2A;}
	.st31{clip-path:url(#SVGID_20_);fill:#5B1420;}
	.st32{clip-path:url(#SVGID_20_);fill:#771925;}
	.st33{clip-path:url(#SVGID_20_);fill:#FFFFFF;}
	.st34{clip-path:url(#SVGID_20_);}
	.st35{clip-path:url(#SVGID_20_);fill:#DF1C4A;}
	.st36{clip-path:url(#SVGID_20_);fill:#C41F43;}
	.st37{clip-path:url(#SVGID_20_);fill:#9F1C37;}
	.st38{clip-path:url(#SVGID_20_);fill:#DCDDDE;}
	.st39{clip-path:url(#SVGID_20_);fill:#D67B96;}
	.st40{clip-path:url(#SVGID_20_);fill:#53A064;}
	.st41{clip-path:url(#SVGID_20_);fill:#163A35;}
	.st42{clip-path:url(#SVGID_20_);fill:#166935;}
	.st43{clip-path:url(#SVGID_20_);fill:#C1E2C3;}
	.st44{clip-path:url(#SVGID_20_);fill:#E91D28;}
	.st45{clip-path:url(#SVGID_20_);fill:#A81F23;}
	.st46{clip-path:url(#SVGID_20_);fill:#D9A4AE;}
	.st47{clip-path:url(#SVGID_20_);fill:#F2E754;}
	.st48{clip-path:url(#SVGID_20_);fill:#DACC51;}
	.st49{clip-path:url(#SVGID_22_);fill:#FFFFFF;}
	.st50{clip-path:url(#SVGID_22_);}
	.st51{clip-path:url(#SVGID_24_);}
	.st52{clip-path:url(#SVGID_26_);}
	.st53{clip-path:url(#SVGID_30_);}
	.st54{clip-path:url(#SVGID_34_);fill:none;stroke:#545453;stroke-width:1.4378;stroke-miterlimit:10;}
	.st55{clip-path:url(#SVGID_36_);}
	.st56{clip-path:url(#SVGID_24_);fill:#1F4C66;}
	.st57{clip-path:url(#SVGID_24_);fill:#00273A;}
	.st58{clip-path:url(#SVGID_40_);fill:#1F4C66;}
	.st59{clip-path:url(#SVGID_40_);fill:#00273A;}
	.st60{clip-path:url(#SVGID_40_);}
	.st61{fill:#1F4C66;}
	.st62{clip-path:url(#SVGID_42_);fill:#00273A;}
	.st63{clip-path:url(#SVGID_42_);fill:#1F4C66;}
	.st64{clip-path:url(#SVGID_42_);fill:#FFFFFF;}
	.st65{clip-path:url(#SVGID_44_);}
	.st66{fill:none;stroke:#601541;stroke-width:4;stroke-miterlimit:10;}
	.st67{fill:#FFFFFF;}
	.st68{clip-path:url(#SVGID_55_);}
	.st69{fill:none;stroke:#601541;stroke-width:3.8411;stroke-miterlimit:10;}
</style>
<path class="st1" d="M406.4,126.9c-1.3-0.3-4.6,0.4-9.9,2.1c-33.9,18-55,43-55,43l-35.6,37l-20.6,19.9c-5-3.6-11.4-6.1-18.4-7.3
	c-8.6-1.5-16.9-1.4-24.5,0.4c-1.6,0.4-3.1,0.9-4.4,1.3c-37.1,5.5-68.4,33.8-76,72.7c0,0,0,0.1,0,0.1c-2.7-0.7-5.2-1.6-7.7-2.8
	c-6.7-3.5-11.1-8.8-12.8-15.4c-1.4-5-1.2-10.3,0.7-15.9c6.3-18.7,24.7-33.5,43.6-35.2c6.8-0.7,10.1-0.9,14.3,2
	c5.6,3.9,12.5-3.2,10.9-5.6c-5.1-8-12.4-10.6-22.8-9.4c-6.3,0.8-12.6,2.5-19.2,5.3c-10.9,4.8-20.4,12.3-28.5,22.3
	c-8.8,11.1-13.2,22.4-13.1,33.7c0.1,3,0.4,6,1.1,8.9c3.9,12.9,13.9,21.3,30.6,25.1c0.4,0.1,0.8,0.1,1.2,0.2
	c-2.1,44.4,28.7,84.8,73.7,93.6c39.1,7.6,77.1-11,96.1-43.6c-17.7,17.9-43.7,26.9-70.3,21.7c-36.4-7.1-61.8-38.4-63-73.9
	c2.1-0.6,4.2-1.3,6.4-2c22.1-8.3,50.3-28,84.7-59c10.2,13.8,15.8,32.9,16.5,57.8l0.1,5.3c0.4,1.7,1.7,2.3,4,1.9l18.9-2.6
	c1.3-0.4,2.6-1,3.9-2.1c2.3-3.3,3.6-6,4.2-8.4c5.3-19.6,15.2-45.7,29-77.7c11.9-27,24.1-51.8,36.3-73.5c4.5-8,7.4-13.1,9-15.4
	C410.7,128.8,409.7,127.1,406.4,126.9 M197.7,292.6c0.2-1,0.3-2,0.5-3c5.8-29.6,27.6-52,54.7-59.9c9.4-0.1,17.6,2.1,24.5,6.6
	C246.3,265.5,219.7,284.2,197.7,292.6 M337.9,226.1c-7.1,13.4-14.1,29.4-20.8,47.8c-4.9-14.2-11.7-26-20.8-35.5l19.3-17.9l55.9-53.9
	L337.9,226.1z"/>
<path class="st0" d="M395.8,119c-1.3-0.3-4.6,0.4-9.9,2.1c-33.9,18-55,43-55,43l-35.6,37L274.6,221c-5-3.6-11.4-6.1-18.4-7.3
	c-8.6-1.5-16.9-1.4-24.5,0.4c-1.6,0.4-3.1,0.9-4.4,1.3c-37.1,5.5-68.4,33.8-76,72.7c0,0,0,0.1,0,0.1c-2.7-0.7-5.2-1.6-7.7-2.8
	c-6.7-3.5-11.1-8.8-12.8-15.4c-1.4-5-1.2-10.3,0.7-15.9c6.3-18.7,24.7-33.5,43.6-35.2c6.8-0.7,10.1-0.9,14.3,2
	c5.6,3.9,12.5-3.2,10.9-5.6c-5.1-8-12.4-10.6-22.8-9.4c-6.3,0.8-12.6,2.5-19.2,5.3c-10.9,4.8-20.4,12.3-28.5,22.3
	c-8.8,11.1-13.2,22.4-13.1,33.7c0.1,3,0.4,6,1.1,8.9c3.9,12.9,13.9,21.3,30.6,25.1c0.4,0.1,0.8,0.1,1.2,0.2
	c-2.1,44.4,28.7,84.8,73.7,93.6c39.1,7.6,77.1-11,96.1-43.6c-17.7,17.9-43.7,26.9-70.3,21.7c-36.4-7.1-61.8-38.4-63-73.9
	c2.1-0.6,4.2-1.3,6.4-2c22.1-8.3,50.3-28,84.7-59c10.2,13.8,15.8,32.9,16.5,57.8l0.1,5.3c0.4,1.7,1.7,2.3,4,1.9l18.9-2.6
	c1.3-0.4,2.6-1,3.9-2.1c2.3-3.3,3.6-6,4.2-8.4c5.3-19.6,15.2-45.7,29-77.7c11.9-27,24.1-51.8,36.3-73.5c4.5-8,7.4-13.1,9-15.4
	C400.1,120.9,399.1,119.2,395.8,119 M187.1,284.7c0.2-1,0.3-2,0.5-3c5.8-29.6,27.6-52,54.7-59.9c9.4-0.1,17.6,2.1,24.5,6.6
	C235.7,257.6,209.1,276.4,187.1,284.7 M327.3,218.2c-7.1,13.4-14.1,29.4-20.8,47.8c-4.9-14.2-11.7-26-20.8-35.5l19.3-17.9l55.9-53.9
	L327.3,218.2z"/>
<rect x="355.4" y="216.7" class="st3" width="99.6" height="47.1"/>
<text transform="matrix(1 0 0 1 355.4149 240.2383)" class="st2 st4 st5"> Designs</text>
<rect x="97.7" y="90.1" class="st3" width="344" height="254.9"/>
<rect x="87.7" y="90.1" class="st3" width="344" height="254.9"/>
<rect x="77.7" y="90.1" class="st3" width="344" height="254.9"/>
</svg>
